# xmcd
#
# Track frame offsets: 
#        150
#        21062
#        40080
#        61262
#        66322
#        86442
#        105437
#        126665
#        148192
#        176335
#        205267
#        221492
#
# Disc length: 3620 seconds
#
# Revision: 0
# Processed by: cddbd v1.5.2PL0 Copyright (c) Steve Scherf et al.
# Submitted via: ExactAudioCopy v1.1
#
DISCID=ab0e220c
DTITLE=MERCY - Tribute to Slim Harpo
DYEAR=1998
DGENRE=Blues
TTITLE0=Tip On It
TTITLE1=I Got Love
TTITLE2=Baby Scratch my Back
TTITLE3=Shake Your Hips (Intro)
TTITLE4=Shake Your Hips
TTITLE5=I'm A King Bee
TTITLE6=I Need Money
TTITLE7=Don't Start Crying Now
TTITLE8=What A Dream
TTITLE9=You Buzz Me Baby
TTITLE10=Dream Girl
TTITLE11=My Home Is A Prison
EXTD=
EXTT0=
EXTT1=
EXTT2=
EXTT3=
EXTT4=
EXTT5=
EXTT6=
EXTT7=
EXTT8=
EXTT9=
EXTT10=
EXTT11=
PLAYORDER=
